<?xml version="1.0" encoding="utf-8"?>
<!-- Generator: Adobe Illustrator 17.0.0, SVG Export Plug-In . SVG Version: 6.00 Build 0)  -->
<!DOCTYPE svg PUBLIC "-//W3C//DTD SVG 1.1//EN" "http://www.w3.org/Graphics/SVG/1.1/DTD/svg11.dtd">
<svg version="1.1" id="Layer_1" xmlns="http://www.w3.org/2000/svg" xmlns:xlink="http://www.w3.org/1999/xlink" x="0px" y="0px"
	 width="204.2px" height="225px" viewBox="0 0 204.2 225" style="enable-background:new 0 0 204.2 225;" xml:space="preserve">
<style type="text/css">
	.st0{fill:#007AC9;}
	.st1{fill:#00549C;}
	.st2{fill:#FFFFFF;}
	.st3{filter:url(#Adobe_OpacityMaskFilter);}
	.st4{fill:url(#SVGID_2_);}
	.st5{opacity:0.4;mask:url(#SVGID_1_);}
</style>
<g>
	<path class="st0" d="M67.8,68.2H39.9l27.9,51.5c0,0,12.7,22.1,26.1-3.8L67.8,68.2z"/>
	<path class="st1" d="M98.9,118.8l41.8-75.4h27.9l-45.3,83.1c0,0-17.4,32.9-45.8,8.4C77.4,134.9,87,141.4,98.9,118.8z"/>
	<polygon class="st2" points="53.2,72.6 48.3,72.6 45.7,67.7 50.5,67.7 	"/>
	<polygon class="st2" points="62.9,72.6 58,72.6 55.4,67.7 60.2,67.7 	"/>
	<polygon class="st2" points="72.4,72.6 67.5,72.6 64.9,67.7 69.7,67.7 	"/>
	<polygon class="st2" points="60.7,77.4 55.8,77.4 53.2,72.6 58,72.6 	"/>
	<polygon class="st2" points="58.5,82.3 53.6,82.3 51,77.4 55.8,77.4 	"/>
	<polygon class="st2" points="68.2,82.3 63.3,82.3 60.7,77.4 65.5,77.4 	"/>
	<polygon class="st0" points="51.6,59.6 46.8,59.6 44.1,54.8 49,54.8 	"/>
	<polygon class="st0" points="41.7,56.8 38.2,56.8 36.2,53.3 39.8,53.3 	"/>
	<polygon class="st0" points="49.4,64.5 44.6,64.5 41.9,59.6 46.8,59.6 	"/>
	<polygon class="st0" points="59.1,64.5 54.3,64.5 51.6,59.6 56.5,59.6 	"/>
	<polygon class="st2" points="75.7,87.1 70.8,87.1 68.2,82.3 73,82.3 	"/>
	<polygon class="st2" points="73.5,92 68.6,92 66,87.1 70.8,87.1 	"/>
	<polygon class="st2" points="63.8,92 58.9,92 56.3,87.1 61.1,87.1 	"/>
	<polygon class="st2" points="71.3,96.8 66.4,96.8 63.8,92 68.6,92 	"/>
	<polygon class="st2" points="69.1,101.7 64.2,101.7 61.6,96.8 66.4,96.8 	"/>
	<defs>
		<filter id="Adobe_OpacityMaskFilter" filterUnits="userSpaceOnUse" x="36.2" y="144" width="132.3" height="80.1">
			<feColorMatrix  type="matrix" values="1 0 0 0 0  0 1 0 0 0  0 0 1 0 0  0 0 0 1 0"/>
		</filter>
	</defs>
	<mask maskUnits="userSpaceOnUse" x="36.2" y="144" width="132.3" height="80.1" id="SVGID_1_">
		<g class="st3">
			<linearGradient id="SVGID_2_" gradientUnits="userSpaceOnUse" x1="102.059" y1="108.0949" x2="116.7579" y2="206.6319">
				<stop  offset="1.075269e-002" style="stop-color:#FFFFFF"/>
				<stop  offset="0.9301" style="stop-color:#000000"/>
			</linearGradient>
			<rect x="17.6" y="123.1" class="st4" width="190.5" height="114.9"/>
		</g>
	</mask>
	<g class="st5">
		<path class="st0" d="M67.8,204.4H39.9l27.9-41c0,0,12.7-17.6,26.1,3L67.8,204.4z"/>
		<path class="st1" d="M98.9,164.1l41.8,60.1h27.9l-45.3-66.2c0,0-17.4-26.2-45.8-6.7C77.4,151.2,87,146.1,98.9,164.1z"/>
		<polygon class="st2" points="53.2,200.9 48.3,200.9 45.7,204.7 50.5,204.7 		"/>
		<polygon class="st2" points="62.9,200.9 58,200.9 55.4,204.7 60.2,204.7 		"/>
		<polygon class="st2" points="72.4,200.9 67.5,200.9 64.9,204.7 69.7,204.7 		"/>
		<polygon class="st2" points="60.7,197 55.8,197 53.2,200.9 58,200.9 		"/>
		<polygon class="st2" points="58.5,193.2 53.6,193.2 51,197 55.8,197 		"/>
		<polygon class="st2" points="68.2,193.2 63.3,193.2 60.7,197 65.5,197 		"/>
		<polygon class="st0" points="51.6,211.2 46.8,211.2 44.1,215.1 49,215.1 		"/>
		<polygon class="st0" points="41.7,213.4 38.2,213.4 36.2,216.3 39.8,216.3 		"/>
		<polygon class="st0" points="49.4,207.3 44.6,207.3 41.9,211.2 46.8,211.2 		"/>
		<polygon class="st0" points="59.1,207.3 54.3,207.3 51.6,211.2 56.5,211.2 		"/>
		<polygon class="st2" points="75.7,189.3 70.8,189.3 68.2,193.2 73,193.2 		"/>
		<polygon class="st2" points="73.5,185.4 68.6,185.4 66,189.3 70.8,189.3 		"/>
		<polygon class="st2" points="63.8,185.4 58.9,185.4 56.3,189.3 61.1,189.3 		"/>
		<polygon class="st2" points="71.3,181.6 66.4,181.6 63.8,185.4 68.6,185.4 		"/>
		<polygon class="st2" points="69.1,177.7 64.2,177.7 61.6,181.6 66.4,181.6 		"/>
	</g>
</g>
</svg>
